<svg xmlns="http://www.w3.org/2000/svg" viewBox="0 0 720 110">
  <defs>
    <marker id="arrowhead" markerWidth="10" markerHeight="7" refX="9" refY="3.5" orient="auto">
      <polygon points="0 0, 10 3.5, 0 7" fill="#333"/>
    </marker>
  </defs>

  <!-- Background -->
  <rect width="720" height="110" fill="white"/>

  <!-- Clipboard Input -->
  <rect x="10" y="30" width="90" height="50" rx="6" fill="#e3f2fd" stroke="#1976d2" stroke-width="2"/>
  <text x="55" y="50" font-family="Arial, sans-serif" font-size="11" text-anchor="middle" fill="#1976d2">Clipboard</text>
  <text x="55" y="65" font-family="Arial, sans-serif" font-size="10" text-anchor="middle" fill="#666">(Image)</text>

  <!-- Arrow 1 -->
  <line x1="105" y1="55" x2="135" y2="55" stroke="#333" stroke-width="2" marker-end="url(#arrowhead)"/>

  <!-- Hotkey -->
  <rect x="140" y="30" width="90" height="50" rx="6" fill="#fff3e0" stroke="#f57c00" stroke-width="2"/>
  <text x="185" y="50" font-family="Arial, sans-serif" font-size="11" text-anchor="middle" fill="#e65100">Hotkey</text>
  <text x="185" y="65" font-family="Arial, sans-serif" font-size="9" text-anchor="middle" fill="#666">Cmd+Shift+I</text>

  <!-- Arrow 2 -->
  <line x1="235" y1="55" x2="265" y2="55" stroke="#333" stroke-width="2" marker-end="url(#arrowhead)"/>

  <!-- Voice Recording + STT -->
  <rect x="270" y="30" width="100" height="50" rx="6" fill="#e8f5e9" stroke="#388e3c" stroke-width="2"/>
  <text x="320" y="50" font-family="Arial, sans-serif" font-size="10" text-anchor="middle" fill="#2e7d32">Deepgram</text>
  <text x="320" y="65" font-family="Arial, sans-serif" font-size="10" text-anchor="middle" fill="#2e7d32">STT</text>

  <!-- Arrow 3 -->
  <line x1="375" y1="55" x2="405" y2="55" stroke="#333" stroke-width="2" marker-end="url(#arrowhead)"/>

  <!-- Image Transformation -->
  <rect x="410" y="30" width="100" height="50" rx="6" fill="#fce4ec" stroke="#c2185b" stroke-width="2"/>
  <text x="460" y="50" font-family="Arial, sans-serif" font-size="10" text-anchor="middle" fill="#ad1457">Gemini 3 Pro</text>
  <text x="460" y="65" font-family="Arial, sans-serif" font-size="10" text-anchor="middle" fill="#ad1457">Image</text>

  <!-- Arrow 4 -->
  <line x1="515" y1="55" x2="545" y2="55" stroke="#333" stroke-width="2" marker-end="url(#arrowhead)"/>

  <!-- Clipboard Output -->
  <rect x="550" y="30" width="90" height="50" rx="6" fill="#e3f2fd" stroke="#1976d2" stroke-width="2"/>
  <text x="595" y="50" font-family="Arial, sans-serif" font-size="11" text-anchor="middle" fill="#1976d2">Clipboard</text>
  <text x="595" y="65" font-family="Arial, sans-serif" font-size="10" text-anchor="middle" fill="#666">(Result)</text>

  <!-- Arrow 5 -->
  <line x1="645" y1="55" x2="675" y2="55" stroke="#333" stroke-width="2" marker-end="url(#arrowhead)"/>

  <!-- Paste -->
  <rect x="680" y="40" width="30" height="30" rx="4" fill="#f3e5f5" stroke="#7b1fa2" stroke-width="2"/>
  <text x="695" y="60" font-family="Arial, sans-serif" font-size="9" text-anchor="middle" fill="#7b1fa2">Paste</text>

  <!-- Total latency annotation -->
  <text x="360" y="100" font-family="Arial, sans-serif" font-size="10" text-anchor="middle" fill="#666" font-style="italic">Typical end-to-end: 10-20 seconds</text>
</svg>
